<svg xmlns="http://www.w3.org/2000/svg" viewBox="0 0 512 512"><path fill="#533672" d="M11 261.5c0-135.309 109.69-245 244.999-245C391.017 16.5 501.055 126.584 501 261.602c-.024 58.652-20.658 112.485-55.052 154.651-8.783 10.768-24.638 12.556-35.416 3.785-42.157-34.306-95.943-54.872-154.532-54.872-59.137 0-113.38 20.952-155.711 55.838-9.975 8.221-24.66 6.802-32.915-3.145C32.167 375.434 11 320.939 11 261.5z"/><path fill="#2c6a73" d="M430 215.5V419H81V215.5z"/><path fill="#23535a" d="M430.5 215.5v97.908h-349V215.5z"/><path fill="#70bdc8" d="M286 435.5h-60v-220h60zm-150-220H76v200h60zm300 0h-60v200h60z"/><path fill="#4cacba" d="M246 405.5h-20v-190h20zm-150-190H76v190h20zm300 0h-20v190h20zm-387.99-30L256 45.5l247.99 140z"/><path fill="#70bdc8" d="M110.158 185.5 256 103.167 401.842 185.5z"/><path fill="#95ced6" d="M287 405.5h-62c-8.284 0-15-6.716-15-15 0-8.284 6.716-15 15-15h62c8.284 0 15 6.716 15 15 0 8.284-6.716 15-15 15zm170-210H55c-8.284 0-15 6.716-15 15s6.716 15 15 15h3.854c2.059 5.826 7.615 10 14.146 10h62c6.531 0 12.087-4.174 14.146-10h61.707c2.059 5.826 7.615 10 14.146 10h62c6.531 0 12.087-4.174 14.146-10h57.707c2.059 5.826 7.615 10 14.146 10h62c6.531 0 12.087-4.174 14.146-10H457c8.284 0 15-6.716 15-15s-6.716-15-15-15z"/><path fill="#3f97a4" d="M361 393.5v74.818c0 9.19-5.649 17.39-14.184 20.798C318.732 500.332 288.086 506.5 256 506.5c-34.707 0-67.729-7.217-97.647-20.232-11.187-4.867-18.353-15.99-18.353-28.19V393.5z"/><path fill="#36818b" d="M140 448h221v15H140zm43.192 47.5h145.616a243.247 243.247 0 0 0 24.354-9.022c2.637-1.14 7.838-5.978 7.838-5.978H159.519c-3.253 0-4.178 4.457-1.195 5.755a243.207 243.207 0 0 0 24.868 9.245zM140 415.5v15h221v-15z"/><path fill="#95ced6" d="M481 205.5H31c-8.284 0-15-6.716-15-15 0-8.284 6.716-15 15-15h450c8.284 0 15 6.716 15 15 0 8.284-6.716 15-15 15z"/><path fill="#badfe4" d="M481 205.5H99.547c-8.284 0-15-6.716-15-15 0-8.284 6.716-15 15-15H481c8.284 0 15 6.716 15 15 0 8.284-6.716 15-15 15z"/><path fill="#badfe4" d="M510.112 180.817c-2.684 4.754-7.633 7.426-12.729 7.426-2.432 0-4.897-.608-7.165-1.889L256 54.128 21.782 186.353c-7.022 3.964-15.928 1.486-19.893-5.537-3.964-7.022-1.485-15.929 5.537-19.893L240.756 29.2a16.686 16.686 0 0 1-1.506-6.95c0-9.251 7.499-16.75 16.75-16.75s16.75 7.499 16.75 16.75c0 2.479-.539 4.833-1.506 6.95l233.33 131.724c7.022 3.964 9.501 12.871 5.538 19.893z"/><path fill="#e9cc5a" d="M180.25 295.5c0-15.164-12.337-27.5-27.5-27.5h-80c-15.163 0-27.5 12.336-27.5 27.5 0 12.324 8.149 22.78 19.341 26.264a35.773 35.773 0 0 0-8.099 22.722c0 19.839 16.083 35.922 35.922 35.922h40.672c19.839 0 35.922-16.083 35.922-35.922 0-8.62-3.037-16.531-8.099-22.722 11.192-3.484 19.341-13.94 19.341-26.264zm-120 0c0-6.893 5.607-12.5 12.5-12.5h13.262l12.5 25H72.75c-6.893 0-12.5-5.607-12.5-12.5zm92.5 12.5h-29.923l12.5-25h17.423c6.893 0 12.5 5.607 12.5 12.5s-5.607 12.5-12.5 12.5zm314-12.5c0-15.164-12.337-27.5-27.5-27.5h-80c-15.163 0-27.5 12.336-27.5 27.5 0 12.324 8.149 22.78 19.341 26.264a35.773 35.773 0 0 0-8.099 22.722c0 19.839 16.083 35.922 35.922 35.922h40.672c19.839 0 35.922-16.083 35.922-35.922 0-8.62-3.037-16.531-8.099-22.722 11.192-3.484 19.341-13.94 19.341-26.264zm-120 0c0-6.893 5.607-12.5 12.5-12.5h13.262l12.5 25H359.25c-6.893 0-12.5-5.607-12.5-12.5zm92.5 12.5h-29.923l12.5-25h17.423c6.893 0 12.5 5.607 12.5 12.5s-5.607 12.5-12.5 12.5z"/><path fill="#f1de96" d="M180.238 294.668C179.793 279.71 167.129 268 152.165 268H83.5a7.5 7.5 0 0 0 0 15h16.15l12.5 25H83.5a7.5 7.5 0 0 0 0 15h3.374a35.765 35.765 0 0 0-7.132 21.487c0 19.839 16.083 35.922 35.922 35.922h17.422c19.839 0 35.922-16.083 35.922-35.922a35.769 35.769 0 0 0-8.099-22.722c11.443-3.563 19.705-14.414 19.329-27.097zM152.75 308h-25.762l12.5-25h12.896c6.505 0 12.2 4.818 12.809 11.295.7 7.432-5.153 13.705-12.443 13.705zm313.988-13.332C466.293 279.71 453.629 268 438.665 268H370a7.5 7.5 0 0 0 0 15h16.15l12.5 25H370a7.5 7.5 0 0 0 0 15h3.374a35.765 35.765 0 0 0-7.132 21.487c0 19.839 16.083 35.922 35.922 35.922h17.422c19.839 0 35.922-16.083 35.922-35.922a35.769 35.769 0 0 0-8.099-22.722c11.443-3.563 19.705-14.414 19.329-27.097zM439.25 308h-25.762l12.5-25h12.896c6.505 0 12.2 4.818 12.809 11.295.7 7.432-5.153 13.705-12.443 13.705z"/><path fill="#95ced6" d="M446.25 390.5v25.382c-24.708 30.411-56.56 54.782-93 70.558V390.5c0-8.284 6.716-15 15-15h63c8.284 0 15 6.716 15 15zm-301.5-15h-63c-8.284 0-15 6.716-15 15v26.604c24.792 30.118 56.633 54.214 93 69.766V390.5c0-8.284-6.716-15-15-15z"/><path fill="#70bdc8" d="M402 375.5c-8.284 0-15 6.716-15 15v78.073a244.377 244.377 0 0 1-33.75 17.867V390.5c0-8.284 6.716-15 15-15zm-335.25 15v26.604a246.477 246.477 0 0 0 33.75 33.732V390.5c0-8.284 6.716-15 15-15H81.75c-8.284 0-15 6.716-15 15z"/></svg>