<svg xmlns="http://www.w3.org/2000/svg" viewBox="0 0 512 512"><path fill="#4d5ca9" d="M512 256c0 18.33-1.93 36.22-5.6 53.46-3.09 14.6-7.44 9.133-12.91 22.693-37.92 93.95-437.06 93.95-474.98 0-5.47-13.56-9.82-8.093-12.91-22.693C1.93 292.22 0 274.33 0 256 0 114.62 114.62 0 256 0s256 114.62 256 256z"/><path fill="#354993" d="M512 256c0 141.38-114.62 256-256 256-99.53 0-185.79-56.8-228.14-139.76-1.9-3.71-3.71-7.48-5.42-11.3 8.02-6.33 24.56-9.32 21.89-21.94l133.5-248.35L347 252.12c-1.59-1.53-8.03-37.64-9.43-39.36l-81-81.01 74.29-74.28 180.51 180.51c.42 5.95.63 11.96.63 18.02z"/><path fill="#fcb42d" d="M505.7 312.63v.01a252.324 252.324 0 0 1-14.51 44.61H197.22L367.03 147z"/><path fill="#f59b20" d="M505.7 312.64a252.324 252.324 0 0 1-14.51 44.61H367.03V147z"/><ellipse cx="289.759" cy="90.655" fill="#fff5cc" rx="52.834" ry="52.834" transform="rotate(-26.75 289.858 90.68)"/><path fill="#fde672" d="M388.86 372.24h-361A253.376 253.376 0 0 1 6.8 314.81L177.83 90.65z"/><path fill="#ffd628" d="M388.855 372.24 177.838 90.655V372.24z"/><path fill="#f59b20" d="M256 512c110.968 0 205.433-70.611 240.948-169.347H15.052C50.567 441.389 145.032 512 256 512z"/><path fill="#da7327" d="M496.95 342.65c-11.35 31.56-28.73 60.25-50.75 84.68a256.566 256.566 0 0 1-32.08 30C370.59 491.58 315.68 512 256 512V342.65z"/><path fill="#fde997" d="M342.592 90.657c0 29.177-23.656 52.833-52.833 52.833V37.824c29.177 0 52.833 23.648 52.833 52.833z"/><path fill="#da7327" d="M103.09 382.325H256v30H103.09z"/><path fill="#b96028" d="M446.2 427.33a256.566 256.566 0 0 1-32.08 30h-98.09v-30z"/></svg>